<svg xmlns="http://www.w3.org/2000/svg" viewBox="0 0 64 64" role="img" aria-label="Connect Wheels">
  <defs>
    <linearGradient id="cw-bg" x1="10" y1="6" x2="54" y2="58" gradientUnits="userSpaceOnUse">
      <stop offset="0" stop-color="#38bdf8"/>
      <stop offset="1" stop-color="#0f172a"/>
    </linearGradient>
    <linearGradient id="cw-car" x1="14" y1="24" x2="50" y2="43" gradientUnits="userSpaceOnUse">
      <stop offset="0" stop-color="#fbbf24"/>
      <stop offset="1" stop-color="#f97316"/>
    </linearGradient>
  </defs>
  <rect width="64" height="64" rx="16" fill="url(#cw-bg)"/>
  <path
    d="M15 36.5 20.5 25c.8-1.8 2.5-3 4.5-3h14c2 0 3.7 1.2 4.5 3L49 36.5v7c0 1.4-1.1 2.5-2.5 2.5h-2.8c-1.3 0-2.4-1-2.5-2.3H22.8C22.6 45 21.6 46 20.3 46h-2.8c-1.4 0-2.5-1.1-2.5-2.5v-7Z"
    fill="url(#cw-car)"
  />
  <path d="M23 27h18l3.2 7H19.8L23 27Z" fill="#082f49" opacity=".88"/>
  <circle cx="22" cy="42" r="5.5" fill="#020617"/>
  <circle cx="42" cy="42" r="5.5" fill="#020617"/>
  <circle cx="22" cy="42" r="2.2" fill="#38bdf8"/>
  <circle cx="42" cy="42" r="2.2" fill="#38bdf8"/>
  <path d="M14 18h8M42 18h8M25 15h14" stroke="#e0f2fe" stroke-width="3" stroke-linecap="round" opacity=".9"/>
</svg>
